<svg width="91" height="91" viewBox="0 0 91 91" fill="none" xmlns="http://www.w3.org/2000/svg">
<circle cx="45.5" cy="45.5" r="44.5" stroke="#956D84" stroke-width="2"/>
<g opacity="0.8" clip-path="url(#clip0_95_3015)">
<path d="M67.6959 37.6529C67.4477 37.3141 67.0824 37.0922 66.6674 37.0281L53.3041 34.9644V23.5741C53.3041 22.7072 52.5988 22.0018 51.7319 22.0018H23.5722C22.7053 22.0018 22 22.7072 22 23.5741V51.7515C22 52.6184 22.7053 53.3238 23.5722 53.3238H34.0665L32.7435 61.8915C32.6125 62.7393 33.2095 63.5546 34.0573 63.6854L61.887 67.9832C62.7157 68.1112 63.5517 67.5042 63.6807 66.6693L64.4003 62.0094C64.5333 61.1484 63.2014 60.9425 63.0685 61.8037C62.9778 62.3905 62.5592 66.7215 62.0926 66.6514L34.263 62.3536C34.1297 62.32 34.067 62.2345 34.0753 62.0972L35.4301 53.3238H36.938L35.842 60.4206C35.7852 60.7884 36.0373 61.1326 36.4051 61.1894L60.4014 64.8952C60.7401 64.9473 61.1169 64.6768 61.1702 64.3321L64.8826 40.293C64.9394 39.9252 64.6873 39.581 64.3195 39.5243L53.304 37.8231V36.3281L66.4617 38.3601C66.595 38.3937 66.6575 38.4791 66.6494 38.6164L63.5932 58.4059C63.4639 59.243 64.7899 59.4867 64.925 58.6116L67.9812 38.822C68.0454 38.407 67.9439 37.9918 67.6959 37.6529ZM23.3476 51.7515V23.5741C23.3476 23.4502 23.4484 23.3495 23.5722 23.3495H51.7318C51.8556 23.3495 51.9564 23.4502 51.9564 23.5741V51.7515C51.9564 51.8754 51.8556 51.9761 51.7318 51.9761H23.5722C23.4484 51.9761 23.3476 51.8754 23.3476 51.7515ZM63.4479 40.7532L59.9411 63.4604L37.2767 59.9602L38.3016 53.3238H51.7318C52.5987 53.3238 53.304 52.6184 53.304 51.7515V39.1866L63.4479 40.7532Z" fill="#956D84"/>
<path d="M49.7924 24.826H25.5116C25.1395 24.826 24.8378 25.1277 24.8378 25.4999V28.8681C24.8378 29.7393 26.1854 29.7393 26.1854 28.8681V26.1737H49.1185V49.1501H26.1854V32.4518C26.1854 31.5806 24.8378 31.5806 24.8378 32.4518V49.8239C24.8378 50.1961 25.1395 50.4977 25.5116 50.4977H49.7923C50.1645 50.4977 50.4662 50.1961 50.4662 49.8239V25.4999C50.4662 25.1277 50.1645 24.826 49.7924 24.826Z" fill="#956D84"/>
<path d="M37.6518 44.3651C37.7398 44.3651 37.8278 44.3479 37.9105 44.3134C37.9861 44.282 39.7832 43.5271 41.6104 42.1008C44.1014 40.1564 45.4348 37.8903 45.4664 35.5473C45.4995 33.0966 43.6325 30.7094 41.0639 30.7094C39.72 30.7094 38.475 31.3784 37.6517 32.4847C36.8286 31.3784 35.5836 30.7094 34.2396 30.7094C31.812 30.7094 29.8371 32.8755 29.8371 35.5382C29.8371 41.1794 37.0895 44.1901 37.3982 44.3155C37.4796 44.3486 37.5658 44.3651 37.6518 44.3651ZM31.1848 35.5382C31.1848 33.6187 32.5552 32.057 34.2397 32.057C35.4376 32.057 36.5311 32.8625 37.0254 34.1092C37.2459 34.6652 38.0578 34.6652 38.2782 34.1092C38.7725 32.8625 39.8659 32.057 41.0639 32.057C42.887 32.057 44.1421 33.8161 44.1189 35.5291C44.0626 39.7 38.8712 42.3802 37.6483 42.9538C36.4168 42.3898 31.1848 39.745 31.1848 35.5382Z" fill="#956D84"/>
</g>
<defs>
<clipPath id="clip0_95_3015">
<rect width="46" height="46" fill="white" transform="translate(22 22)"/>
</clipPath>
</defs>
</svg>
