<svg width="91" height="91" viewBox="0 0 91 91" fill="none" xmlns="http://www.w3.org/2000/svg">
<circle cx="45.5" cy="45.5" r="44.5" stroke="#956D84" stroke-width="2"/>
<g opacity="0.8">
<g clip-path="url(#clip0_95_3062)">
<path d="M65.4783 29.5271H62.0374C62.1374 29.3868 62.228 29.2395 62.3073 29.085C62.7625 28.1958 62.8241 27.1485 62.4762 26.2116L61.4335 23.409C61.0859 22.473 60.3556 21.7205 59.4306 21.3445C58.5046 20.9683 57.4557 20.9983 56.5526 21.4271L48.3004 25.3462C47.8926 25.0547 47.3938 24.8825 46.8553 24.8825H43.1448C42.6064 24.8825 42.1073 25.055 41.6994 25.3465L33.4476 21.4268C32.5444 20.9983 31.4956 20.9683 30.5696 21.3445C29.6445 21.7205 28.9142 22.473 28.5667 23.4087L27.5239 26.2119C27.176 27.1485 27.2376 28.1958 27.6932 29.085C27.7722 29.2395 27.8631 29.3871 27.9631 29.5271H24.5218C24.1617 29.5271 23.8696 29.8189 23.8696 30.1793V34.8748C23.8696 35.235 24.1617 35.5271 24.5218 35.5271C24.882 35.5271 25.1741 35.235 25.1741 34.8748V30.8313H29.7045C29.7771 30.8568 29.8506 30.8803 29.9251 30.9009L35.4008 32.4083C34.184 34.2729 33.1106 36.2342 32.1917 38.2664H25.1741V37.4836C25.1741 37.1234 24.882 36.8316 24.5218 36.8316C24.1617 36.8316 23.8696 37.1234 23.8696 37.4836V38.9187C23.8696 39.2789 24.1617 39.571 24.5218 39.571H26.8478V62.6622C26.8478 63.0226 27.1399 63.3144 27.5001 63.3144H62.5001C62.8602 63.3144 63.1524 63.0226 63.1524 62.6622V58.8749C63.1524 58.5148 62.8602 58.2227 62.5001 58.2227C62.1396 58.2227 61.8478 58.5148 61.8478 58.8749V62.0102H48.9131V39.9721C50.7606 43.4714 52.0112 47.2763 52.5868 51.2077C52.6248 51.4679 52.8157 51.6797 53.0707 51.7448C53.1243 51.7587 53.1784 51.7651 53.2323 51.7651C53.4338 51.7651 53.6279 51.6716 53.753 51.5056C54.6906 50.2617 55.5624 48.93 56.3495 47.5397C57.6676 48.4374 58.9473 49.4382 60.1615 50.5215C60.3663 50.704 60.6636 50.7392 60.9051 50.6089C61.1465 50.479 61.281 50.2117 61.241 49.9402C60.7203 46.388 59.7495 42.8949 58.3734 39.571H61.8475V56.2659C61.8475 56.6263 62.1396 56.9181 62.4998 56.9181C62.8602 56.9181 63.152 56.6263 63.152 56.2659V39.571H65.4783C65.8385 39.571 66.1303 39.2789 66.1303 38.9187V30.1793C66.1306 29.8189 65.8388 29.5271 65.4783 29.5271ZM57.112 22.6052C57.694 22.3292 58.3427 22.3105 58.9395 22.553C59.5354 22.7951 59.9868 23.2604 60.2109 23.8637L61.2533 26.6659C61.4777 27.2694 61.4393 27.9175 61.1459 28.4905C60.8528 29.0631 60.3495 29.4726 59.7292 29.6431L49.3467 32.5015V29.3668C51.6804 27.9378 57.4983 24.9905 58.9463 27.0344C59.1543 27.3281 59.5612 27.3981 59.8552 27.1898C60.1493 26.9815 60.2189 26.5743 60.0106 26.2806C58.8931 24.7029 56.5381 24.6262 53.0104 26.0529C51.5573 26.6404 50.2157 27.3575 49.3467 27.855V27.3736C49.3467 27.0244 49.2742 26.6917 49.1439 26.3895L57.112 22.6052ZM43.1448 26.1867H46.8553C47.5099 26.1867 48.0422 26.7194 48.0422 27.3736V32.7649C48.0422 33.4194 47.5099 33.9517 46.8553 33.9517H43.1448C42.4903 33.9517 41.958 33.4194 41.958 32.7649V27.3736C41.958 26.7191 42.4903 26.1867 43.1448 26.1867ZM42.0486 38.2661C42.6725 37.2295 43.3515 36.2248 44.0821 35.2563H45.9174C46.6483 36.2248 47.3274 37.2295 47.9509 38.2661H42.0486ZM28.8543 28.4905C28.5609 27.9175 28.5225 27.2694 28.7466 26.6662L29.7896 23.8633C30.0134 23.2604 30.4648 22.7951 31.0606 22.553C31.6571 22.3105 32.3062 22.3292 32.8878 22.6052L40.8563 26.3902C40.726 26.692 40.6535 27.0244 40.6535 27.3739V27.8924C39.7874 27.3939 38.4155 26.6555 36.9252 26.0529C33.3979 24.6262 31.0426 24.7029 29.9251 26.2806C29.7168 26.5743 29.7864 26.9815 30.0805 27.1898C30.3745 27.3981 30.7814 27.3285 30.9894 27.0344C32.4509 24.9712 38.3646 27.9936 40.6535 29.4065V32.5015L30.2713 29.6435C29.6507 29.4726 29.1474 29.0631 28.8543 28.4905ZM40.9462 33.935C41.2709 34.5424 41.8397 35.0006 42.521 35.1769C39.4705 39.433 37.3705 44.3232 36.3855 49.4633C35.6926 48.4509 35.0449 47.3898 34.4519 46.2939C34.3652 46.1333 34.2156 46.0166 34.0386 45.9718C33.8619 45.927 33.6745 45.9582 33.522 46.0579C32.4358 46.7662 31.3721 47.5433 30.3449 48.3777C31.4027 42.8249 33.5885 37.4707 36.7228 32.7723L40.9462 33.935ZM28.1524 39.571H31.6268C30.2507 42.8949 29.2799 46.3877 28.7588 49.9402C28.7192 50.2117 28.8533 50.479 29.0948 50.6089C29.3366 50.7388 29.6336 50.704 29.8383 50.5215C31.0526 49.4382 32.3323 48.4374 33.6507 47.5397C34.4377 48.93 35.3092 50.2613 36.2472 51.5056C36.3723 51.6716 36.5664 51.7655 36.7679 51.7655C36.8217 51.7655 36.8759 51.7587 36.9294 51.7448C37.1845 51.6797 37.375 51.4679 37.4131 51.2077C37.9889 47.2763 39.2396 43.471 41.0868 39.9717V62.0102H28.1524V39.571ZM42.3913 62.0102V39.571H47.6088V62.0102H42.3913ZM56.4781 46.0579C56.3256 45.9582 56.138 45.9273 55.9616 45.9721C55.7849 46.0169 55.635 46.1336 55.5483 46.2939C54.9553 47.3898 54.3076 48.4512 53.6147 49.4633C52.6297 44.3229 50.5297 39.433 47.4789 35.1773C48.1602 35.0012 48.7293 34.5427 49.054 33.935L53.2784 32.772C56.412 37.4713 58.5978 42.8255 59.6556 48.3777C58.6281 47.5433 57.5644 46.7662 56.4781 46.0579ZM64.8261 38.2664H57.8088C56.8899 36.2342 55.8165 34.2729 54.6 32.4083L60.0751 30.9009C60.1496 30.8803 60.2231 30.8568 60.2957 30.8313H64.8261V38.2664Z" fill="#956D84"/>
</g>
</g>
<defs>
<clipPath id="clip0_95_3062">
<rect width="42.2609" height="42.2609" fill="white" transform="translate(23.8696 21)"/>
</clipPath>
</defs>
</svg>
