<svg width="91" height="91" viewBox="0 0 91 91" fill="none" xmlns="http://www.w3.org/2000/svg">
<circle cx="45.5" cy="45.5" r="44.5" stroke="#956D84" stroke-width="2"/>
<path d="M31.9656 32.8332H32.8622C32.5183 32.3621 32.228 31.8501 31.9911 31.3076C31.5633 30.317 31.3265 29.2321 31.3265 28.0937C31.3265 27.1004 31.5073 26.1428 31.8409 25.2566C32.1848 24.3372 32.689 23.4992 33.3206 22.776C33.5651 22.4959 33.9904 22.4677 34.268 22.7123C34.5482 22.9568 34.5762 23.3796 34.3317 23.6597C33.8045 24.2633 33.3843 24.9612 33.099 25.7252C32.824 26.4586 32.6737 27.2558 32.6737 28.0937C32.6737 29.0513 32.8698 29.9578 33.2238 30.7754C33.5574 31.5446 34.0336 32.2424 34.6168 32.8332H44.2208C44.8039 32.2424 45.2802 31.5446 45.6138 30.7754C45.9678 29.9578 46.1639 29.0513 46.1639 28.0937C46.1639 26.2319 45.41 24.5434 44.1876 23.3235C42.9676 22.1037 41.2817 21.3473 39.4174 21.3473C38.903 21.3473 38.4063 21.4033 37.9352 21.5077C37.4513 21.6172 36.9802 21.7802 36.5344 21.9916C36.1982 22.152 35.7984 22.0069 35.6405 21.6707C35.48 21.3345 35.6252 20.9347 35.9614 20.7769C36.4886 20.5273 37.054 20.3312 37.6474 20.1987C38.2231 20.0688 38.8164 20 39.4174 20C41.6536 20 43.6757 20.9067 45.1426 22.3711C45.8532 23.0816 46.4313 23.9246 46.8388 24.8594C47.1724 24.0953 47.6206 23.3923 48.1606 22.7761C48.4051 22.4959 48.8304 22.4678 49.108 22.7124C49.3881 22.9569 49.4162 23.3797 49.1716 23.6598C48.6444 24.2634 48.2242 24.9613 47.9364 25.7253C47.6613 26.4587 47.5111 27.2559 47.5111 28.0938C47.5111 29.0514 47.7098 29.9579 48.0638 30.7755C48.3974 31.5447 48.8711 32.2425 49.4569 32.8333H59.0582C59.644 32.2425 60.1202 31.5447 60.4538 30.7755C60.8078 29.9579 61.0039 29.0514 61.0039 28.0938C61.0039 26.232 60.2475 24.5435 59.0276 23.3236C57.8077 22.1038 56.1218 21.3474 54.2576 21.3474C53.7406 21.3474 53.2465 21.4034 52.7753 21.5078C52.2914 21.6173 51.8203 21.7803 51.3746 21.9917C51.0384 22.1521 50.6386 22.007 50.4781 21.6708C50.3202 21.3346 50.4653 20.9348 50.799 20.777C51.3287 20.5274 51.8941 20.3313 52.485 20.1988C53.0632 20.0689 53.6566 20.0001 54.2576 20.0001C56.4937 20.0001 58.5158 20.9068 59.9802 22.3712C61.4445 23.8356 62.3512 25.8602 62.3512 28.0938C62.3512 29.2323 62.1144 30.3172 61.684 31.3078C61.4496 31.8503 61.1568 32.3622 60.8155 32.8334H61.7094C62.6161 32.8334 63.4387 33.2052 64.0346 33.8012C64.6307 34.3969 65 35.2194 65 36.1236V53.653C65 54.5598 64.6307 55.3823 64.0347 55.9783C63.4388 56.5742 62.6162 56.9435 61.7095 56.9435H56.9394L55.335 62.5592C55.2535 62.8495 54.9886 63.0481 54.6881 63.0481H38.9897C38.6714 63.0481 38.4039 62.8265 38.3327 62.5286L36.7384 56.9435H31.9656C31.0615 56.9435 30.2389 56.5742 29.643 55.9783C29.047 55.3823 28.6753 54.5597 28.6753 53.653V49.7488H26.3602V51.0807C26.3602 51.4068 26.1284 51.6819 25.8177 51.743L19.8608 53.4697C19.4356 53.5946 19 53.2711 19 52.8255V46.4151C19 46.0433 19.303 45.7402 19.6749 45.7402C20.0467 45.7402 20.3472 46.0433 20.3472 46.4151V51.9315L25.013 50.5765C25.013 46.7844 25.013 42.9922 25.013 39.2001L20.3472 37.8477V43.3615C20.3472 43.736 20.0467 44.0364 19.6749 44.0364C19.303 44.0364 19 43.7359 19 43.3615V36.9514C19 36.4751 19.4814 36.1542 19.9169 36.3248L25.8738 38.0515C26.1615 38.1356 26.3602 38.3978 26.3602 38.6959V40.0279H28.6752V36.1236C28.6752 35.2194 29.047 34.3969 29.6429 33.801C30.239 33.2025 31.0615 32.8332 31.9656 32.8332ZM54.2577 24.7446C55.1821 24.7446 56.02 25.1189 56.6262 25.7251C57.2323 26.3312 57.6067 27.1691 57.6067 28.0936C57.6067 29.018 57.2323 29.856 56.6262 30.462C56.02 31.0682 55.1821 31.4426 54.2577 31.4426C53.3332 31.4426 52.4953 31.0682 51.8892 30.462C51.283 29.856 50.9086 29.0181 50.9086 28.0936C50.9086 27.1691 51.283 26.3312 51.8892 25.7251C52.4953 25.1189 53.3332 24.7446 54.2577 24.7446ZM55.6737 26.6776C55.3121 26.316 54.8103 26.0919 54.2577 26.0919C53.705 26.0919 53.2059 26.3159 52.8416 26.6776C52.48 27.0418 52.2558 27.5409 52.2558 28.0937C52.2558 28.6463 52.4799 29.1481 52.8416 29.5096C53.2059 29.8712 53.7049 30.0955 54.2577 30.0955C54.8103 30.0955 55.3121 29.8713 55.6737 29.5096C56.0353 29.1481 56.2595 28.6463 56.2595 28.0937C56.2595 27.5409 56.0353 27.0418 55.6737 26.6776ZM39.4175 24.7446C40.3445 24.7446 41.1799 25.1189 41.7861 25.7251C42.3922 26.3312 42.7665 27.1691 42.7665 28.0936C42.7665 29.018 42.3922 29.856 41.7861 30.462C41.1799 31.0682 40.3446 31.4426 39.4175 31.4426C38.493 31.4426 37.6578 31.0682 37.0516 30.462C36.4454 29.856 36.0685 29.0181 36.0685 28.0936C36.0685 27.1691 36.4455 26.3312 37.0516 25.7251C37.6578 25.1189 38.493 24.7446 39.4175 24.7446ZM40.8336 26.6776C40.472 26.316 39.9728 26.0919 39.4176 26.0919C38.865 26.0919 38.3658 26.3159 38.0042 26.6776C37.6426 27.0418 37.4184 27.5409 37.4184 28.0937C37.4184 28.6463 37.6425 29.1481 38.0042 29.5096C38.3658 29.8712 38.865 30.0955 39.4176 30.0955C39.9703 30.0955 40.472 29.8713 40.8336 29.5096C41.1953 29.1481 41.4194 28.6463 41.4194 28.0937C41.4193 27.5409 41.1952 27.0418 40.8336 26.6776ZM42.028 46.8456C42.2929 47.1078 42.2929 47.5358 42.028 47.7981C41.7657 48.0604 41.3379 48.0604 41.0755 47.7981L39.145 45.8675C38.1747 44.8972 37.6908 43.6214 37.6908 42.3453C37.6908 41.0694 38.1747 39.791 39.145 38.8231C40.0823 37.8858 41.3429 37.3689 42.6673 37.3689C43.9432 37.3689 45.2192 37.8528 46.1895 38.8231L46.839 39.4726L47.4884 38.8231C48.4562 37.8528 49.7346 37.3689 51.0106 37.3689C52.2866 37.3689 53.5624 37.8528 54.5328 38.8231C55.4675 39.7578 55.9871 41.0209 55.9871 42.3453C55.9871 43.6214 55.5006 44.8997 54.5328 45.8675L47.3152 53.0826C47.0529 53.3475 46.6251 53.3475 46.3627 53.0826L43.2353 49.9552C42.9704 49.6929 42.9704 49.2676 43.2353 49.0026C43.4976 48.7404 43.9254 48.7404 44.1878 49.0026L46.839 51.6538L53.5803 44.9125C54.2629 44.23 54.6398 43.3106 54.6398 42.3453C54.6398 41.4133 54.2857 40.4811 53.5803 39.7756C52.8724 39.0701 51.9427 38.7162 51.0106 38.7162C50.0785 38.7162 49.1464 39.0701 48.4409 39.7756L47.3152 40.9013C47.0528 41.1636 46.625 41.1636 46.3626 40.9013L45.237 39.7756C44.5544 39.0931 43.6325 38.7136 42.6673 38.7136C41.7377 38.7136 40.8056 39.0676 40.0976 39.7756C39.3921 40.4811 39.0381 41.4133 39.0381 42.3453C39.0381 43.2774 39.3921 44.2071 40.0976 44.915L42.028 46.8456ZM28.6753 48.4017V41.3776H26.3602V48.4017H28.6753ZM46.8389 31.323C46.6046 31.8603 46.3143 32.3672 45.9756 32.8332H47.6998C47.3635 32.3671 47.0732 31.8603 46.8389 31.323ZM55.5387 56.9436H38.1365L39.4965 61.701H54.1787L55.5387 56.9436ZM61.7095 34.1805C51.7949 34.1805 41.8803 34.1805 31.9656 34.1805C31.4334 34.1805 30.947 34.3995 30.5955 34.7535C30.2415 35.1049 30.0225 35.5913 30.0225 36.1237V53.6531C30.0225 54.188 30.2415 54.6719 30.5955 55.026C30.947 55.3773 31.4334 55.5965 31.9656 55.5965H61.7095C62.2443 55.5965 62.7307 55.3774 63.0822 55.026C63.4338 54.6719 63.6527 54.188 63.6527 53.6531V36.1237C63.6527 35.5914 63.4337 35.105 63.0822 34.7535C62.7308 34.3994 62.2444 34.1805 61.7095 34.1805Z" fill="#AA8A9D"/>
</svg>
